<?xml version="1.0" encoding="UTF-8" standalone="no"?>
<!-- Created with Inkscape (http://www.inkscape.org/) -->

<svg
   width="24.006001mm"
   height="25.35mm"
   viewBox="0 0 24.006001 25.35"
   version="1.1"
   id="svg1"
   xml:space="preserve"
   inkscape:export-filename="../../docs/emoji/transfire.png"
   inkscape:export-xdpi="960"
   inkscape:export-ydpi="960"
   inkscape:version="1.4.2 (ebf0e940d0, 2025-05-08)"
   sodipodi:docname="firans.svg"
   xmlns:inkscape="http://www.inkscape.org/namespaces/inkscape"
   xmlns:sodipodi="http://sodipodi.sourceforge.net/DTD/sodipodi-0.dtd"
   xmlns="http://www.w3.org/2000/svg"
   xmlns:svg="http://www.w3.org/2000/svg"><sodipodi:namedview
     id="namedview1"
     pagecolor="#ffffff"
     bordercolor="#000000"
     borderopacity="0.25"
     inkscape:showpageshadow="true"
     inkscape:pageopacity="0.0"
     inkscape:pagecheckerboard="0"
     inkscape:deskcolor="#d1d1d1"
     inkscape:document-units="mm"
     inkscape:zoom="4.6061853"
     inkscape:cx="33.433305"
     inkscape:cy="57.856986"
     inkscape:window-width="1840"
     inkscape:window-height="1005"
     inkscape:window-x="0"
     inkscape:window-y="0"
     inkscape:window-maximized="0"
     inkscape:current-layer="layer1"
     showgrid="false" /><defs
     id="defs1"><filter
       inkscape:collect="always"
       style="color-interpolation-filters:sRGB"
       id="filter5"
       x="-0.056817308"
       y="-0.10237133"
       width="1.1136346"
       height="1.2047427"></filter></defs><g
     inkscape:label="Layer 1"
     inkscape:groupmode="layer"
     id="layer1"
     transform="translate(-130.37886,-124.50269)"><path
       id="path5"
       style="opacity:0.168091;fill:#0d0204;fill-opacity:1;stroke:none;stroke-width:3;stroke-linecap:square;filter:url(#filter5)"
       d="m 130.63809,136.76531 a 11.868912,11.715299 0 0 0 -0.0904,1.2454 11.868912,11.715299 0 0 0 11.86904,11.71556 11.868912,11.715299 0 0 0 11.48354,-8.84959 z" /><path
       id="path1"
       style="fill:#ffffff;fill-opacity:1"
       d="m 143.34171,133.22547 -9.24802,4.92322 -1.80092,5.8601 c 1.54974,2.44201 3.90146,4.28603 6.65231,5.16558 4.87776,1.55961 9.95592,-0.40297 12.88965,-4.15272 L 151.134,141.2317 Z" /><path
       style="fill:#5bcefa;fill-opacity:1"
       d="m 132.79642,144.75033 c -2.71308,-3.54539 -2.93864,-8.24398 -0.85305,-12.52743 l 0.83736,-1.71979 0.1323,2.07414 c 0.11888,1.8639 0.20753,2.13879 0.87465,2.71198 0.94061,0.80818 2.065,0.81489 2.99162,0.0179 0.84047,-0.72295 0.92398,-1.58829 0.387,-4.01022 -0.40825,-1.84136 -0.14546,-3.22834 0.84428,-4.45589 l 0.60609,-0.75172 0.0536,1.23162 c 0.0665,1.52883 0.70814,2.65428 1.81173,3.17796 1.09591,0.52004 1.82786,0.50677 2.77081,-0.0502 1.43671,-0.84868 1.92361,-2.84872 1.19225,-4.89738 -0.31712,-0.88832 -0.30962,-0.96059 0.0778,-0.74933 1.17992,0.64348 2.8166,2.3759 3.37257,3.56985 0.71565,1.53686 0.81417,3.54966 0.31597,6.45495 -0.39624,2.31072 -0.0592,3.31807 1.25538,3.75192 1.62524,0.53638 3.55152,-0.98243 3.98315,-3.14058 0.24373,-1.21868 0.59728,-0.69774 0.78867,1.16209 0.2983,2.89867 -0.86619,6.67269 -2.39688,8.41511 l -0.93088,1.05966 -0.0121,-1.43659 c -0.003,-0.64383 -0.26018,-1.70638 -0.57107,-2.36122 -0.53106,-1.11859 -0.57473,-1.15061 -0.72179,-0.52917 -0.21927,0.92653 -0.5916,1.46088 -1.26362,1.81346 -1.48721,0.78027 -2.16821,-1.15536 -2.62417,-3.78181 -0.43584,-2.51054 -1.28706,-3.8644 -2.99983,-4.77119 -0.64616,-0.3421 -1.21417,-0.58265 -1.26226,-0.53457 -0.0481,0.0481 0.0416,0.68921 0.19937,1.42471 0.49364,2.30175 -0.50519,4.35864 -2.41015,4.96325 -1.30779,0.41508 -2.62817,-0.73417 -2.62817,-2.28754 v -0.58843 l -0.65912,0.61921 c -0.97191,0.91306 -1.78961,4.08122 -1.96472,5.80464 l -0.0746,1.65619 z"
       id="path2"
       sodipodi:nodetypes="cscsscsscsscscssssssccsssssscsscsscc" /><path
       id="path4"
       style="fill:#f5a9b8;fill-opacity:1;stroke:none;stroke-width:3;stroke-linecap:square"
       d="m 136.85011,148.27623 c 0.038,0.0207 0.0749,0.0433 0.11317,0.0636 0.15789,0.0837 0.31736,0.16353 0.47905,0.2403 0.16168,0.0768 0.32562,0.15046 0.49092,0.22014 0.1653,0.0697 0.33203,0.13551 0.50075,0.19792 0.16871,0.0624 0.33915,0.12125 0.51108,0.17622 0.15243,0.0487 0.3051,0.094 0.45785,0.13591 0.15275,0.0419 0.30544,0.0806 0.45837,0.11575 0.15293,0.0352 0.30593,0.067 0.45889,0.0956 0.15296,0.0286 0.30603,0.0539 0.45888,0.076 0.15285,0.0221 0.30577,0.0407 0.45837,0.0563 0.1526,0.0157 0.30462,0.0283 0.45682,0.0377 0.1522,0.009 0.30464,0.0154 0.45631,0.0186 0.15166,0.003 0.30273,0.003 0.45371,5.2e-4 0.15099,-0.003 0.3015,-0.009 0.45166,-0.0176 0.15015,-0.009 0.29988,-0.0209 0.44906,-0.0357 0.14919,-0.0148 0.2979,-0.0322 0.44597,-0.0527 0.14808,-0.0205 0.29553,-0.0441 0.44235,-0.0703 0.14682,-0.0262 0.29331,-0.0551 0.43874,-0.0868 0.14542,-0.0317 0.28968,-0.0662 0.43356,-0.10336 0.14388,-0.0372 0.28723,-0.0774 0.42943,-0.11988 0.1422,-0.0425 0.28338,-0.0876 0.42375,-0.1354 0.14037,-0.0478 0.27966,-0.098 0.41806,-0.15089 0.1384,-0.0529 0.27609,-0.10847 0.41238,-0.1664 0.11564,-0.0492 0.23014,-0.10129 0.34416,-0.154 -0.41226,-1.67004 -1.51213,-3.08813 -3.26026,-4.36252 -1.85201,4.35973 -4.83917,3.5536 -4.07572,0.94516 -1.72007,0.4149 -2.66151,2.02034 -3.10731,3.07578 z" /></g></svg>
